<svg data-v-0dd9719b="" version="1.0" xmlns="http://www.w3.org/2000/svg" xmlns:xlink="http://www.w3.org/1999/xlink" width="100%" height="100%" viewBox="0 0 340.000000 250.000000" preserveAspectRatio="xMidYMid meet" color-interpolation-filters="sRGB" style="margin: auto;"> <rect data-v-0dd9719b="" x="0" y="0" width="100%" height="100%" fill="#fff" fill-opacity="1" class="background"></rect> <rect data-v-0dd9719b="" x="0" y="0" width="100%" height="100%" fill="url(#watermark)" fill-opacity="1" class="watermarklayer"></rect> <g data-v-0dd9719b="" fill="#333333" class="icon-text-wrapper icon-svg-group iconsvg" transform="translate(47.125,94.90459632873535)"><g class="iconsvg-imagesvg" transform="translate(0,0)"><g><rect fill="#333333" fill-opacity="0" stroke-width="2" x="0" y="0" width="60" height="60.19080485137887" class="image-rect"></rect> <svg x="0" y="0" width="60" height="60.19080485137887" filtersec="colorsb3437237090" class="image-svg-svg primary" style="overflow: visible;"><svg xmlns="http://www.w3.org/2000/svg" viewBox="0.0011053085327148438 -0.04001331329345703 595.2885131835938 597.1812133789062"><g><g><path d="M85 597c-24.25 1-48.38-3.76-72.81-.32-12.47 1.74-14.97-3.53-9.33-14.68C42 504.25 81.47 426.7 120.32 348.84c32.76-65.66 64.66-131.75 97.28-197.48 23.74-47.85 48-95.44 72.1-143.1 1.89-3.76 3.3-8.8 8.91-8.26 4.64.49 5.44 5 7.13 8.43 15.91 32.26 31.68 64.59 47.87 96.71 4.14 8.22 3.9 15.56-.14 23.58Q302.06 231 250.9 333.26q-29.63 59.22-59.06 118.53-34.07 68.53-68 137.15c-2.73 5.53-6.74 8-12.64 8-8.73.06-17.49.06-26.2.06z" fill="#333333"></path><path d="M299.43 584.82c2-10.24 3.6-20.6 6.14-30.71 10.19-40.54 20.83-81 31-121.52 5.19-20.73 9.41-41.71 14.67-62.42 2.7-10.63-2.11-12.82-11.19-12.7q-28.46.39-56.93.09c-14.9-.15-17-4.12-10.2-17.7q59.36-118.59 118.71-237.19c2.54-5.06 4.41-12.85 10.54-12.7s7.56 7.94 10.1 13.08c9.89 20 19.17 40.41 29.91 60 5.11 9.3 5 16.95.36 26-15.28 29.84-29.85 60-45.3 89.79-6 11.51-2.23 14.93 9.26 14.71 9.73-.18 19.47-.16 29.19.16 8.88.28 12.71 3.88 8.09 13.07Q381.27 431 318.8 555.34c-5.14 10.17-7.38 22.04-19.37 29.48z" fill="#f1bf4b"></path><path d="M536 597.07c-16 0-32.08-.09-48.12 0-9.25.07-14.5-3.72-18.82-12.59q-27.74-56.93-57.39-112.92c-8.87-16.83-12.61-31.28-1.16-49.89 16.21-26.34 28.32-55.21 42.09-83 1.92-3.88 2.68-9.23 7.58-9.9 5.92-.81 8.12 5 10.14 9 17.3 34.24 34.2 68.69 51.33 103q27.64 55.4 55.47 110.7c5.2 10.4 10.21 20.9 15.46 31.27 4.71 9.32 4.1 14.53-8.45 14-16-.64-32.07-.16-48.1-.16z" fill="#333333"></path></g></g></svg></svg> <!----></g></g> <g transform="translate(67,14.855402946472168)"><g data-gra="path-name" fill-rule="" class="tp-name iconsvg-namesvg"><g transform="scale(1)"><g><path d="M1.84-2.33L1.84-2.33Q1.84-3.83 1.77-5.34 1.7-6.84 1.62-8.36 1.54-9.87 1.48-11.41 1.41-12.94 1.41-14.52L1.41-14.52Q1.41-16.19 1.51-17.9 1.62-19.61 1.94-21.2 2.25-22.79 2.8-24.19 3.34-25.59 4.22-26.62 5.1-27.66 6.37-28.27 7.64-28.87 9.36-28.87L9.36-28.87Q11.01-28.87 12.22-28.35 13.43-27.84 14.28-26.94 15.13-26.04 15.67-24.83 16.21-23.61 16.51-22.21 16.81-20.8 16.93-19.27 17.05-17.75 17.05-16.24L17.05-16.24Q17.05-15.85 17.04-15.56 17.03-15.27 17.02-14.93 17.01-14.58 16.98-14.11 16.95-13.64 16.91-12.89 16.87-12.14 16.82-11.04 16.77-9.95 16.71-8.35 16.66-6.74 16.58-4.56 16.5-2.38 16.42 0.53L16.42 0.53 10.58 0.31Q10.91-1.92 11.17-4.15 11.44-6.39 11.61-8.33L11.61-8.33Q10.11-8.44 8.82-8.44L8.82-8.44Q8.15-8.44 7.57-8.43 6.98-8.41 6.53-8.37L6.53-8.37Q6.59-7.35 6.67-6.22 6.74-5.08 6.84-3.93 6.94-2.78 7.06-1.65 7.17-0.53 7.33 0.49L7.33 0.49 1.8 0.65Q1.84-0.08 1.84-0.83 1.84-1.58 1.84-2.33ZM6.29-12.49L6.29-12.49Q6.88-12.45 7.45-12.45 8.01-12.45 8.56-12.45L8.56-12.45Q10.65-12.45 11.92-12.57L11.92-12.57Q12.04-13.96 12.17-15.36 12.3-16.77 12.3-18.38L12.3-18.38Q12.3-21.76 11.6-23.53 10.91-25.3 9.56-25.3L9.56-25.3Q8.82-25.3 8.19-24.77 7.57-24.24 7.11-23.14 6.65-22.03 6.38-20.35 6.12-18.67 6.12-16.38L6.12-16.38Q6.12-15.58 6.17-14.67 6.22-13.76 6.29-12.49ZM35.46-12.84L35.46-12.84Q35.46-11.18 35.35-9.48 35.25-7.78 34.94-6.2 34.64-4.61 34.08-3.22 33.53-1.82 32.65-0.78 31.77 0.25 30.51 0.85 29.26 1.45 27.54 1.45L27.54 1.45Q25.9 1.45 24.69 0.93 23.48 0.41 22.62-0.48 21.76-1.37 21.22-2.59 20.68-3.81 20.37-5.21 20.06-6.61 19.94-8.13 19.82-9.66 19.82-11.16L19.82-11.16Q19.82-11.55 19.83-11.85 19.84-12.14 19.86-12.48 19.88-12.82 19.91-13.3 19.94-13.78 19.98-14.53 20.02-15.29 20.07-16.39 20.12-17.5 20.18-19.1 20.25-20.7 20.32-22.88 20.39-25.06 20.49-27.95L20.49-27.95 26.33-27.74Q26.04-24.73 25.78-22.57 25.53-20.41 25.33-18.77 25.14-17.12 24.98-15.87 24.83-14.62 24.73-13.45 24.63-12.28 24.58-11.04 24.53-9.81 24.53-8.21L24.53-8.21Q24.53-5.22 25.18-3.68 25.82-2.13 27.35-2.13L27.35-2.13Q29.01-2.13 29.9-4.11 30.79-6.1 30.79-10.36L30.79-10.36Q30.79-15.01 30.46-19.34 30.12-23.67 29.58-27.9L29.58-27.9 35.11-28.07Q35.07-27.31 35.07-26.58 35.07-25.84 35.07-25.1L35.07-25.1Q35.07-23.05 35.13-21.12 35.19-19.2 35.26-17.58 35.34-15.97 35.4-14.74 35.46-13.51 35.46-12.84ZM47.31 0.31L47.31 0.31 46.76 0.31Q45.55 0.31 44.46 0.44 43.38 0.57 42.15 0.8L42.15 0.8Q42.4-3.5 42.54-7.28 42.67-11.06 42.67-14.62L42.67-14.62Q42.67-19.18 42.44-23.61L42.44-23.61 37.51-23.26Q37.49-23.93 37.47-24.48 37.45-25.04 37.42-25.56 37.38-26.08 37.32-26.61 37.26-27.15 37.18-27.82L37.18-27.82 39.55-27.82Q41.11-27.82 42.61-27.84 44.1-27.86 45.6-27.9 47.09-27.93 48.63-27.99 50.16-28.05 51.8-28.15L51.8-28.15Q51.71-27.15 51.68-26.46 51.65-25.76 51.65-25.02L51.65-25.02 51.65-23.99 46.84-23.87Q46.78-21.99 46.77-20.18 46.76-18.38 46.76-16.54L46.76-16.54Q46.76-12.28 46.9-8.09 47.03-3.91 47.31 0.31ZM70.92-14.02L70.92-14.02Q70.92-10.89 70.33-8.15 69.75-5.41 68.59-3.37 67.44-1.33 65.73-0.15 64.02 1.04 61.79 1.04L61.79 1.04Q59.52 1.04 57.81-0.15 56.1-1.33 54.96-3.37 53.82-5.41 53.24-8.15 52.66-10.89 52.66-14.02L52.66-14.02Q52.66-17.12 53.22-19.86 53.78-22.6 54.91-24.63 56.04-26.66 57.76-27.85 59.49-29.03 61.79-29.03L61.79-29.03Q64.18-29.03 65.91-27.85 67.64-26.66 68.75-24.63 69.87-22.6 70.39-19.86 70.92-17.12 70.92-14.02ZM65.8-14.02L65.8-14.02Q65.8-16.44 65.6-18.58 65.41-20.72 64.95-22.31 64.49-23.91 63.72-24.83 62.95-25.75 61.79-25.75L61.79-25.75Q60.68-25.75 59.92-24.83 59.15-23.91 58.68-22.31 58.21-20.72 58-18.58 57.78-16.44 57.78-14.02L57.78-14.02Q57.78-11.57 58-9.43 58.21-7.29 58.69-5.7 59.17-4.11 59.93-3.18 60.7-2.25 61.79-2.25L61.79-2.25Q62.87-2.25 63.63-3.18 64.39-4.11 64.88-5.7 65.37-7.29 65.58-9.43 65.8-11.57 65.8-14.02ZM86.97-24.02L86.97-24.02Q84.7-24.24 83-24.31 81.3-24.38 80.09-24.38L80.09-24.38Q79.54-24.38 79.16-24.38 78.78-24.38 78.45-24.34L78.45-24.34 78.45-16.66Q79.8-16.69 80.87-16.76 81.95-16.83 82.69-16.93L82.69-16.93Q83.57-17.03 84.25-17.14L84.25-17.14Q84.23-17.01 84.23-16.83L84.23-16.83Q84.21-16.67 84.21-16.46 84.21-16.24 84.21-15.97L84.21-15.97Q84.21-15.35 84.25-14.48 84.29-13.61 84.41-12.61L84.41-12.61Q82.34-12.88 80.83-12.95 79.33-13.02 78.49-13.02L78.49-13.02Q78.53-9.29 78.63-6.7 78.74-4.11 78.86-2.5L78.86-2.5Q78.97-0.61 79.13 0.57L79.13 0.57Q78.76 0.51 78.27 0.48 77.78 0.45 77.24 0.45L77.24 0.45Q76.55 0.45 75.85 0.48 75.14 0.51 74.58 0.55L74.58 0.55Q73.91 0.61 73.29 0.65L73.29 0.65Q73.42-0.66 73.53-1.99 73.64-3.32 73.72-4.61 73.79-5.9 73.85-7.1 73.91-8.29 73.95-9.34L73.95-9.34Q74.03-11.81 74.05-14.06L74.05-14.06Q74.03-16.4 73.95-18.86L73.95-18.86Q73.91-19.92 73.85-21.08 73.79-22.25 73.72-23.46 73.64-24.67 73.53-25.89 73.42-27.11 73.29-28.27L73.29-28.27Q75.73-28.17 77.66-28.12 79.58-28.07 81.09-28.07L81.09-28.07Q82.57-28.07 83.65-28.1 84.72-28.13 85.41-28.17L85.41-28.17Q86.21-28.21 86.74-28.27L86.74-28.27Q86.74-28.29 86.74-27.91 86.74-27.54 86.75-26.94 86.77-26.33 86.82-25.57 86.87-24.81 86.97-24.02ZM101.98 1.23L101.98 1.23Q100.58 1.19 99.32 1.19 98.07 1.19 96.98 1.19L96.98 1.19Q94.75 1.19 93.16 1.24 91.56 1.29 90.51 1.33L90.51 1.33Q89.3 1.39 88.46 1.45L88.46 1.45Q88.59 0.14 88.7-1.21 88.81-2.56 88.89-3.87 88.96-5.18 89.02-6.41 89.08-7.64 89.12-8.74L89.12-8.74Q89.2-11.28 89.22-13.64L89.22-13.64Q89.2-15.99 89.12-18.45L89.12-18.45Q89.08-19.51 89.02-20.67 88.96-21.84 88.89-23.05 88.81-24.26 88.7-25.48 88.59-26.7 88.46-27.86L88.46-27.86 94.22-28.15Q93.85-23.73 93.71-19.64 93.58-15.54 93.58-12.08L93.58-12.08Q93.58-8.76 93.65-6.39 93.71-4.03 93.77-2.8L93.77-2.8 93.85-2.8Q95.38-2.8 96.83-3.03 98.29-3.26 99.44-3.56L99.44-3.56Q100.79-3.89 101.98-4.32L101.98-4.32Q101.96-4.11 101.96-3.77L101.96-3.77Q101.94-3.5 101.94-3.06 101.94-2.62 101.94-1.99L101.94-1.99Q101.94-1.37 101.94-0.58 101.94 0.22 101.98 1.23ZM109.33 0.2L109.33 0.2 104.17 0.72Q104.21-0.59 104.24-2 104.27-3.42 104.29-4.83 104.31-6.24 104.33-7.59 104.35-8.95 104.35-10.17L104.35-10.17Q104.37-13.02 104.37-15.78L104.37-15.78Q104.35-18.24 104.31-20.55L104.31-20.55Q104.29-21.52 104.26-22.56 104.23-23.59 104.19-24.59 104.15-25.59 104.1-26.48 104.06-27.37 103.98-28.07L103.98-28.07 108.9-28.31Q108.86-27.09 108.83-25.81 108.81-24.53 108.79-23.27 108.77-22.01 108.76-20.84 108.75-19.67 108.75-18.65L108.75-18.65Q108.75-13.55 108.87-8.92 109-4.3 109.33 0.2ZM128.67-6.33L128.67-6.33Q128.67-4.89 128.23-3.52 127.79-2.15 126.88-1.08 125.97 0 124.59 0.65 123.21 1.29 121.32 1.29L121.32 1.29Q119.4 1.29 117.66 0.32 115.92-0.65 114.6-2.58 113.28-4.52 112.49-7.42 111.7-10.32 111.7-14.21L111.7-14.21Q111.7-18.1 112.53-20.86 113.36-23.61 114.73-25.36 116.1-27.11 117.85-27.92 119.6-28.74 121.43-28.74L121.43-28.74Q123.27-28.74 124.55-28.2 125.83-27.66 126.63-26.84 127.43-26.02 127.8-25.03 128.16-24.04 128.16-23.15L128.16-23.15Q128.16-22.25 127.89-21.57 127.63-20.9 127.2-20.46 126.77-20.02 126.23-19.79 125.7-19.57 125.15-19.57L125.15-19.57Q124.62-19.57 124.1-19.7 123.58-19.84 123.19-20.18 122.8-20.53 122.56-21.08 122.31-21.64 122.31-22.46L122.31-22.46Q122.33-22.87 122.41-23.26L122.41-23.26Q122.49-23.59 122.66-24 122.82-24.4 123.15-24.75L123.15-24.75Q122.86-25.08 122.51-25.26 122.16-25.43 121.82-25.53L121.82-25.53Q121.45-25.63 121.06-25.67L121.06-25.67Q120.55-25.67 119.8-24.98 119.05-24.3 118.34-22.86 117.64-21.42 117.13-19.21 116.62-16.99 116.62-13.94L116.62-13.94Q116.62-10.87 117.13-8.55 117.64-6.24 118.4-4.67 119.17-3.11 120.04-2.32 120.91-1.52 121.63-1.52L121.63-1.52Q123.08-1.52 123.79-2.83 124.5-4.14 124.5-6.88L124.5-6.88Q124.5-7.51 124.44-8.19L124.44-8.19Q124.4-8.76 124.31-9.48 124.21-10.2 124.03-10.93L124.03-10.93Q123.35-10.83 122.33-10.67 121.32-10.52 119.99-10.24L119.99-10.24Q120.2-11.12 120.27-12.05 120.34-12.98 120.34-13.78L120.34-13.78Q120.34-14.17 120.33-14.5 120.32-14.84 120.3-15.07L120.3-15.07Q120.28-15.35 120.26-15.58L120.26-15.58Q120.85-15.46 121.63-15.38L121.63-15.38Q122.29-15.31 123.26-15.26 124.23-15.21 125.48-15.21L125.48-15.21Q126.14-15.21 126.88-15.22 127.61-15.23 128.43-15.29L128.43-15.29Q128.31-14.47 128.31-13.61L128.31-13.61Q128.31-12.86 128.37-12.04 128.43-11.22 128.49-10.32 128.55-9.42 128.61-8.44 128.67-7.45 128.67-6.33ZM136.49 0.68L136.49 0.68Q134.78 0.68 133.74 0.71 132.69 0.74 132.09 0.78L132.09 0.78Q131.38 0.84 131.05 0.88L131.05 0.88Q131.21-0.22 131.32-1.46 131.44-2.7 131.54-3.99 131.64-5.28 131.7-6.55 131.75-7.82 131.79-8.97L131.79-8.97Q131.87-11.69 131.89-14.41L131.89-14.41Q131.87-17.12 131.79-19.67L131.79-19.67Q131.75-20.74 131.7-21.9 131.64-23.07 131.56-24.18 131.48-25.3 131.37-26.31 131.27-27.33 131.13-28.15L131.13-28.15 132.4-28.15Q133.46-28.15 134.22-28.18 134.98-28.21 135.49-28.25L135.49-28.25Q136.08-28.29 136.49-28.34L136.49-28.34Q136.39-26.39 136.32-24.42 136.25-22.44 136.21-20.65 136.17-18.86 136.15-17.38 136.13-15.89 136.13-14.9L136.13-14.9Q136.76-14.86 137.35-14.86 137.93-14.86 138.5-14.86L138.5-14.86Q139.73-14.86 140.68-14.91 141.63-14.95 142.25-15.01L142.25-15.01Q142.25-15.13 142.24-15.86 142.23-16.6 142.21-17.71 142.19-18.82 142.14-20.21 142.1-21.6 142.02-23.03 141.94-24.45 141.82-25.79 141.71-27.13 141.53-28.15L141.53-28.15 142.78-28.15Q143.78-28.15 144.51-28.18 145.24-28.21 145.73-28.25L145.73-28.25Q146.3-28.29 146.69-28.34L146.69-28.34Q146.63-27.07 146.58-25.77 146.53-24.47 146.5-23.21 146.47-21.95 146.46-20.77 146.44-19.59 146.42-18.53L146.42-18.53Q146.38-16.07 146.38-13.78L146.38-13.78Q146.38-11.51 146.42-9.17L146.42-9.17Q146.44-8.17 146.46-7.07 146.47-5.96 146.5-4.82 146.53-3.68 146.58-2.54 146.63-1.41 146.69-0.35L146.69-0.35Q145.05-0.35 144.03-0.32 143.01-0.29 142.45-0.25L142.45-0.25Q141.78-0.2 141.45-0.16L141.45-0.16Q141.63-1.35 141.74-2.7 141.86-4.05 141.95-5.43 142.04-6.82 142.09-8.17 142.14-9.52 142.17-10.69L142.17-10.69Q141.24-10.79 140.38-10.82 139.52-10.85 138.73-10.85L138.73-10.85Q137.91-10.85 137.26-10.83 136.6-10.81 136.13-10.77L136.13-10.77Q136.13-9.72 136.15-8.33 136.17-6.94 136.22-5.42 136.27-3.91 136.33-2.34 136.39-0.76 136.49 0.68ZM158.69 0.31L158.69 0.31 158.15 0.31Q156.93 0.31 155.85 0.44 154.76 0.57 153.53 0.8L153.53 0.8Q153.79-3.5 153.92-7.28 154.06-11.06 154.06-14.62L154.06-14.62Q154.06-19.18 153.82-23.61L153.82-23.61 148.9-23.26Q148.88-23.93 148.86-24.48 148.84-25.04 148.8-25.56 148.76-26.08 148.7-26.61 148.64-27.15 148.57-27.82L148.57-27.82 150.93-27.82Q152.5-27.82 153.99-27.84 155.49-27.86 156.98-27.9 158.48-27.93 160.01-27.99 161.55-28.05 163.19-28.15L163.19-28.15Q163.09-27.15 163.06-26.46 163.03-25.76 163.03-25.02L163.03-25.02 163.03-23.99 158.22-23.87Q158.16-21.99 158.15-20.18 158.15-18.38 158.15-16.54L158.15-16.54Q158.15-12.28 158.28-8.09 158.42-3.91 158.69 0.31ZM180.16 0.45L180.16 0.45Q178.71 0.45 177.46 0.54 176.21 0.63 174.76 0.8L174.76 0.8Q174.08-1.33 173.36-3.44 172.65-5.55 171.87-7.72L171.87-7.72Q171.09-5.47 170.35-3.26 169.62-1.06 168.86 1.08L168.86 1.08 163.38 0.8Q164.28-0.94 165.12-2.66 165.96-4.38 166.74-6.12 167.51-7.86 168.24-9.65 168.97-11.44 169.66-13.33L169.66-13.33Q168.27-16.77 166.7-20.36 165.12-23.95 163.34-27.9L163.34-27.9Q164.11-27.91 164.79-27.94 165.48-27.97 166.13-28 166.79-28.03 167.44-28.05 168.1-28.07 168.78-28.11L168.78-28.11Q169.44-25.69 170.19-23.46 170.93-21.23 171.67-19.1L171.67-19.1Q172.34-21.17 172.99-23.4 173.65-25.63 174.31-28.11L174.31-28.11Q176.03-27.99 177.6-27.99L177.6-27.99Q178.2-27.99 178.79-27.99 179.37-27.99 180.04-28.03L180.04-28.03Q178.14-24.38 176.66-20.75 175.17-17.12 173.86-13.49L173.86-13.49Q175.45-9.66 177.05-6.23 178.65-2.8 180.16 0.45Z" transform="translate(-1.409999966621399, 29.030000686645508)"></path></g> <!----> <!----> <!----> <!----> <!----> <!----> <!----></g></g> <!----></g></g><defs v-gra="od"></defs></svg>